<?xml version="1.0" encoding="UTF-8" standalone="no"?>
<!-- Created with Inkscape (http://www.inkscape.org/) -->

<svg
   xmlns:dc="http://purl.org/dc/elements/1.1/"
   xmlns:cc="http://creativecommons.org/ns#"
   xmlns:rdf="http://www.w3.org/1999/02/22-rdf-syntax-ns#"
   xmlns:svg="http://www.w3.org/2000/svg"
   xmlns="http://www.w3.org/2000/svg"
   xmlns:sodipodi="http://sodipodi.sourceforge.net/DTD/sodipodi-0.dtd"
   xmlns:inkscape="http://www.inkscape.org/namespaces/inkscape"
   version="1.1"
   width="62"
   height="60"
   viewBox="0 0 62 60"
   id="svg2"
   xml:space="preserve"
   inkscape:version="0.48.2 r9819"
   sodipodi:docname="pie.svg"><sodipodi:namedview
     pagecolor="#ffffff"
     bordercolor="#666666"
     borderopacity="1"
     objecttolerance="10"
     gridtolerance="10"
     guidetolerance="10"
     inkscape:pageopacity="0"
     inkscape:pageshadow="2"
     inkscape:window-width="1280"
     inkscape:window-height="746"
     id="namedview11"
     showgrid="false"
     inkscape:zoom="3.9333333"
     inkscape:cx="31"
     inkscape:cy="1.1447624"
     inkscape:window-x="0"
     inkscape:window-y="26"
     inkscape:window-maximized="1"
     inkscape:current-layer="g6167"
     showguides="true"
     inkscape:guide-bbox="true" /><metadata
     id="metadata24"><rdf:RDF><cc:Work
         rdf:about=""><dc:format>image/svg+xml</dc:format><dc:type
           rdf:resource="http://purl.org/dc/dcmitype/StillImage" /><dc:title /></cc:Work></rdf:RDF></metadata><defs
     id="defs22"><inkscape:path-effect
       effect="spiro"
       id="path-effect3055"
       is_visible="true" /></defs><g
     transform="translate(60.127119,11.292373)"
     id="activity-browse"
     style="display:block">
	
	<g
   transform="translate(-128.87712,-22.838983)"
   id="g7"
   style="display:inline">
		
		
		
		
		
		
	<g
   transform="matrix(0.10822504,0,0,0.09945444,61.358446,34.085169)"
   id="g6167"><polygon
     points="59.094,124.29 60.043,126.32 61.062,128.33 62.141,130.29 63.277,132.21 64.484,134.11 65.742,135.96 67.059,137.77 68.445,139.54 69.883,141.26 71.371,142.94 72.918,144.55 74.508,146.13 76.156,147.65 77.855,149.12 79.594,150.53 81.383,151.89 83.223,153.18 85.09,154.41 86.996,155.58 88.945,156.7 122.34,95.941 53.07,96 53.07,96 53.098,98.238 53.207,100.49 53.387,102.71 53.645,104.94 53.961,107.16 54.359,109.37 54.828,111.57 55.367,113.73 55.977,115.89 56.656,118.03 57.406,120.14 58.215,122.23 "
     style="font-style:normal;font-variant:normal;font-weight:normal;font-stretch:normal;letter-spacing:normal;word-spacing:normal;text-anchor:start;fill:#ffffff;fill-opacity:1;fill-rule:nonzero;stroke:#000000;stroke-width:6.57725498;stroke-linecap:butt;stroke-linejoin:round;stroke-miterlimit:10.43299961;stroke-opacity:1;stroke-dasharray:none;stroke-dashoffset:0"
     id="polygon9"
     transform="matrix(0,3.8499225,3.7825849,0,-4.7739308,-389.7198)" /><polygon
     points="59.094,124.29 60.043,126.32 61.062,128.33 62.141,130.29 63.277,132.21 64.484,134.11 65.742,135.96 67.059,137.77 68.445,139.54 69.883,141.26 71.371,142.94 72.918,144.55 74.508,146.13 76.156,147.65 77.855,149.12 79.594,150.53 81.383,151.89 83.223,153.18 85.09,154.41 86.996,155.58 88.945,156.7 122.34,95.941 53.07,96 53.07,96 53.098,98.238 53.207,100.49 53.387,102.71 53.645,104.94 53.961,107.16 54.359,109.37 54.828,111.57 55.367,113.73 55.977,115.89 56.656,118.03 57.406,120.14 58.215,122.23 "
     style="font-style:normal;font-variant:normal;font-weight:normal;font-stretch:normal;letter-spacing:normal;word-spacing:normal;text-anchor:start;fill:#ffffff;fill-opacity:1;stroke:#000000;stroke-width:6.57725498;stroke-linecap:butt;stroke-linejoin:round;stroke-miterlimit:10.43299961;stroke-opacity:1;stroke-dasharray:none;stroke-dashoffset:0"
     id="polygon11"
     transform="matrix(0,3.8499225,3.7825849,0,-4.7739308,-389.7198)" /><polygon
     points="117.52,165.13 119.81,165.26 122.11,165.3 124.42,165.27 126.71,165.17 129.01,164.98 131.3,164.73 133.59,164.4 135.85,163.99 138.1,163.5 140.34,162.95 142.55,162.31 144.75,161.61 146.92,160.82 149.05,159.97 151.16,159.05 153.24,158.05 155.29,157 157.3,155.87 159.27,154.68 161.2,153.42 163.08,152.09 122.33,96.004 89,156.76 89,156.76 91.039,157.82 93.105,158.83 95.215,159.77 97.344,160.64 99.512,161.43 101.7,162.15 103.91,162.81 106.13,163.38 108.38,163.88 110.65,164.3 112.93,164.66 115.22,164.93 "
     style="font-style:normal;font-variant:normal;font-weight:normal;font-stretch:normal;letter-spacing:normal;word-spacing:normal;text-anchor:start;fill:#ffffff;fill-opacity:1;fill-rule:nonzero;stroke:#000000;stroke-width:6.57725498;stroke-linecap:butt;stroke-linejoin:round;stroke-miterlimit:10.43299961;stroke-opacity:1;stroke-dasharray:none;stroke-dashoffset:0"
     id="polygon17"
     transform="matrix(0,3.8499225,3.7825849,0,-4.7739308,-389.7198)" /><polygon
     points="117.52,165.13 119.81,165.26 122.11,165.3 124.42,165.27 126.71,165.17 129.01,164.98 131.3,164.73 133.59,164.4 135.85,163.99 138.1,163.5 140.34,162.95 142.55,162.31 144.75,161.61 146.92,160.82 149.05,159.97 151.16,159.05 153.24,158.05 155.29,157 157.3,155.87 159.27,154.68 161.2,153.42 163.08,152.09 122.33,96.004 89,156.76 89,156.76 91.039,157.82 93.105,158.83 95.215,159.77 97.344,160.64 99.512,161.43 101.7,162.15 103.91,162.81 106.13,163.38 108.38,163.88 110.65,164.3 112.93,164.66 115.22,164.93 "
     style="font-style:normal;font-variant:normal;font-weight:normal;font-stretch:normal;letter-spacing:normal;word-spacing:normal;text-anchor:start;fill:#ffffff;fill-opacity:1;stroke:#000000;stroke-width:6.57725498;stroke-linecap:butt;stroke-linejoin:round;stroke-miterlimit:10.43299961;stroke-opacity:1;stroke-dasharray:none;stroke-dashoffset:0"
     id="polygon19"
     transform="matrix(0,3.8499225,3.7825849,0,-4.7739308,-389.7198)" /><polygon
     points="182.42,130.69 183.51,128.73 184.53,126.76 185.48,124.74 186.37,122.69 187.2,120.62 187.96,118.52 188.65,116.4 189.26,114.25 189.81,112.09 190.29,109.91 190.69,107.71 191.03,105.51 191.3,103.3 191.5,101.07 191.63,98.848 191.68,96.621 191.66,94.383 191.57,92.156 191.41,89.93 191.18,87.711 190.88,85.504 190.51,83.305 190.06,81.117 189.54,78.949 188.96,76.793 188.3,74.656 122.37,96.086 163.15,152.09 163.15,152.09 164.94,150.75 166.68,149.35 168.38,147.9 170.02,146.4 171.61,144.84 173.16,143.23 174.66,141.57 176.1,139.86 177.48,138.11 178.8,136.32 180.07,134.48 181.28,132.6 "
     style="font-style:normal;font-variant:normal;font-weight:normal;font-stretch:normal;letter-spacing:normal;word-spacing:normal;text-anchor:start;fill:#ffffff;fill-opacity:1;fill-rule:nonzero;stroke:#000000;stroke-width:6.57725498;stroke-linecap:butt;stroke-linejoin:round;stroke-miterlimit:10.43299961;stroke-opacity:1;stroke-dasharray:none;stroke-dashoffset:0"
     id="polygon25"
     transform="matrix(0,3.8499225,3.7825849,0,-4.7739308,-389.7198)" /><polygon
     points="182.42,130.69 183.51,128.73 184.53,126.76 185.48,124.74 186.37,122.69 187.2,120.62 187.96,118.52 188.65,116.4 189.26,114.25 189.81,112.09 190.29,109.91 190.69,107.71 191.03,105.51 191.3,103.3 191.5,101.07 191.63,98.848 191.68,96.621 191.66,94.383 191.57,92.156 191.41,89.93 191.18,87.711 190.88,85.504 190.51,83.305 190.06,81.117 189.54,78.949 188.96,76.793 188.3,74.656 122.37,96.086 163.15,152.09 163.15,152.09 164.94,150.75 166.68,149.35 168.38,147.9 170.02,146.4 171.61,144.84 173.16,143.23 174.66,141.57 176.1,139.86 177.48,138.11 178.8,136.32 180.07,134.48 181.28,132.6 "
     style="font-style:normal;font-variant:normal;font-weight:normal;font-stretch:normal;letter-spacing:normal;word-spacing:normal;text-anchor:start;fill:#ffffff;fill-opacity:1;stroke:#000000;stroke-width:6.57725498;stroke-linecap:butt;stroke-linejoin:round;stroke-miterlimit:10.43299961;stroke-opacity:1;stroke-dasharray:none;stroke-dashoffset:0"
     id="polygon27"
     transform="matrix(0,3.8499225,3.7825849,0,-4.7739308,-389.7198)" /><polygon
     points="173.54,49.172 171.97,47.516 170.34,45.918 168.67,44.371 166.95,42.871 165.18,41.441 163.36,40.062 161.5,38.746 159.59,37.496 157.65,36.309 155.67,35.18 153.65,34.121 151.59,33.133 149.51,32.203 147.4,31.355 145.26,30.566 143.09,29.859 140.91,29.223 138.7,28.645 136.48,28.156 134.24,27.727 131.98,27.379 129.72,27.109 127.44,26.91 125.18,26.781 122.89,26.734 120.61,26.754 118.33,26.852 116.06,27.02 113.79,27.27 122.48,96.059 188.34,74.566 188.34,74.566 187.6,72.418 186.8,70.281 185.92,68.184 184.97,66.105 183.95,64.066 182.87,62.059 181.72,60.09 180.5,58.16 179.23,56.273 177.9,54.426 176.5,52.629 175.04,50.871 "
     style="font-style:normal;font-variant:normal;font-weight:normal;font-stretch:normal;letter-spacing:normal;word-spacing:normal;text-anchor:start;fill:#ffffff;fill-opacity:1;fill-rule:nonzero;stroke:#000000;stroke-width:6.57725498;stroke-linecap:butt;stroke-linejoin:round;stroke-miterlimit:10.43299961;stroke-opacity:1;stroke-dasharray:none;stroke-dashoffset:0"
     id="polygon33"
     transform="matrix(0,3.8499225,3.7825849,0,-4.7739308,-389.7198)" /><polygon
     points="173.54,49.172 171.97,47.516 170.34,45.918 168.67,44.371 166.95,42.871 165.18,41.441 163.36,40.062 161.5,38.746 159.59,37.496 157.65,36.309 155.67,35.18 153.65,34.121 151.59,33.133 149.51,32.203 147.4,31.355 145.26,30.566 143.09,29.859 140.91,29.223 138.7,28.645 136.48,28.156 134.24,27.727 131.98,27.379 129.72,27.109 127.44,26.91 125.18,26.781 122.89,26.734 120.61,26.754 118.33,26.852 116.06,27.02 113.79,27.27 122.48,96.059 188.34,74.566 188.34,74.566 187.6,72.418 186.8,70.281 185.92,68.184 184.97,66.105 183.95,64.066 182.87,62.059 181.72,60.09 180.5,58.16 179.23,56.273 177.9,54.426 176.5,52.629 175.04,50.871 "
     style="font-style:normal;font-variant:normal;font-weight:normal;font-stretch:normal;letter-spacing:normal;word-spacing:normal;text-anchor:start;fill:#ffffff;fill-opacity:1;stroke:#000000;stroke-width:6.57725498;stroke-linecap:butt;stroke-linejoin:round;stroke-miterlimit:10.43299961;stroke-opacity:1;stroke-dasharray:none;stroke-dashoffset:0"
     id="polygon35"
     transform="matrix(0,3.8499225,3.7825849,0,-4.7739308,-389.7198)" /><polygon
     points="86.598,36.609 84.711,37.797 82.863,39.035 81.055,40.332 79.297,41.68 77.578,43.098 75.898,44.566 74.281,46.086 72.703,47.652 71.184,49.27 69.707,50.938 68.289,52.656 66.93,54.414 65.633,56.211 64.383,58.059 63.195,59.938 62.078,61.855 61.02,63.812 60.02,65.801 59.082,67.82 58.215,69.867 57.418,71.934 56.68,74.043 56.012,76.16 55.414,78.297 54.887,80.453 54.43,82.633 54.043,84.82 53.727,87.027 53.477,89.234 53.297,91.453 53.188,93.672 53.16,95.898 122.49,95.898 113.71,27.207 113.71,27.207 111.51,27.523 109.31,27.902 107.13,28.359 104.98,28.879 102.83,29.477 100.71,30.133 98.613,30.859 96.535,31.656 94.488,32.516 92.461,33.445 90.473,34.445 88.516,35.492 "
     style="font-style:normal;font-variant:normal;font-weight:normal;font-stretch:normal;letter-spacing:normal;word-spacing:normal;text-anchor:start;fill:#ffffff;fill-opacity:1;fill-rule:nonzero;stroke:#000000;stroke-width:6.57725498;stroke-linecap:butt;stroke-linejoin:round;stroke-miterlimit:10.43299961;stroke-opacity:1;stroke-dasharray:none;stroke-dashoffset:0"
     id="polygon41"
     transform="matrix(0,3.8499225,3.7825849,0,-4.7739308,-389.7198)" /><polygon
     points="86.598,36.609 84.711,37.797 82.863,39.035 81.055,40.332 79.297,41.68 77.578,43.098 75.898,44.566 74.281,46.086 72.703,47.652 71.184,49.27 69.707,50.938 68.289,52.656 66.93,54.414 65.633,56.211 64.383,58.059 63.195,59.938 62.078,61.855 61.02,63.812 60.02,65.801 59.082,67.82 58.215,69.867 57.418,71.934 56.68,74.043 56.012,76.16 55.414,78.297 54.887,80.453 54.43,82.633 54.043,84.82 53.727,87.027 53.477,89.234 53.297,91.453 53.188,93.672 53.16,95.898 122.49,95.898 113.71,27.207 113.71,27.207 111.51,27.523 109.31,27.902 107.13,28.359 104.98,28.879 102.83,29.477 100.71,30.133 98.613,30.859 96.535,31.656 94.488,32.516 92.461,33.445 90.473,34.445 88.516,35.492 "
     style="font-style:normal;font-variant:normal;font-weight:normal;font-stretch:normal;letter-spacing:normal;word-spacing:normal;text-anchor:start;fill:#ffffff;fill-opacity:1;stroke:#000000;stroke-width:6.57725498;stroke-linecap:butt;stroke-linejoin:round;stroke-miterlimit:10.43299961;stroke-opacity:1;stroke-dasharray:none;stroke-dashoffset:0"
     id="polygon43"
     transform="matrix(0,3.8499225,3.7825849,0,-4.7739308,-389.7198)" /></g></g>
</g></svg>